{"title":"Vent d'est 1993 [PAz]","uid":9359636,"size":1379916351,"categoryP":"video","categoryS":"movies","magnet":"?xt=urn:btih:9071d06cb0666fab6eab692264517d5f0ea72959&amp;dn=Vent+d%27est+1993+%5BPAz%5D&amp;tr=udp%3A%2F%2Ftracker.openbittorrent.com%3A80&amp;tr=udp%3A%2F%2Fopen.demonii.com%3A1337&amp;tr=udp%3A%2F%2Ftracker.coppersurfer.tk%3A6969&amp;tr=udp%3A%2F%2Fexodus.desync.com%3A6969","seeders":0,"leechers":0,"uploader":"newscene","files":2,"time":1387287129,"description":"The true story of General Smyslovsky and the anti-Communist 1st Russian National Army receiving shelter in Liechtenstein in 1945 and successfully resisting Soviet pressure to be returned for execution in the USSR. \n\nOriginal sound: French\nSubtitles (soft): English\n\nComplete name                            : Vent d'est 1993 [PAz].avi\nFormat                                   : AVI\nFormat/Info                              : Audio Video Interleave\nFormat profile                           : OpenDML\nFormat settings                          : rec\nFile size                                : 1.29 GiB\nDuration                                 : 1h 50mn\nOverall bit rate                         : 1 658 Kbps\nWriting application                      : AVI-Mux GUI 1.17.8, Aug 30 2008  12:36:58\n\nVideo\nID                                       : 0\nFormat                                   : MPEG-4 Visual\nFormat profile                           : Advanced Simple@L5\nFormat settings, BVOP                    : 2\nFormat settings, QPel                    : No\nFormat settings, GMC                     : No warppoints\nFormat settings, Matrix                  : Default (H.263)\nMuxing mode                              : Packed bitstream\nCodec ID                                 : XVID\nCodec ID/Hint                            : XviD\nDuration                                 : 1h 50mn\nBit rate                                 : 1 205 Kbps\nWidth                                    : 640 pixels\nHeight                                   : 384 pixels\nDisplay aspect ratio                     : 1.667\nFrame rate                               : 25.000 fps\nColor space                              : YUV\nChroma subsampling                       : 4:2:0\nBit depth                                : 8 bits\nScan type                                : Progressive\nCompression mode                         : Lossy\nBits/(Pixel*Frame)                       : 0.196\nStream size                              : 956 MiB (73%)\nWriting library                          : XviD 1.0.3 (UTC 2004-12-20)\n\nAudio\nID                                       : 1\nFormat                                   : AC-3\nFormat/Info                              : Audio Coding 3\nMode extension                           : CM (complete main)\nFormat settings, Endianness              : Big\nCodec ID                                 : 2000\nDuration                                 : 1h 50mn\nBit rate mode                            : Constant\nBit rate                                 : 448 Kbps\nChannel count                            : 6 channels\nChannel positions                        : Front: L C R, Side: L R, LFE\nSampling rate                            : 48.0 KHz\nBit depth                                : 16 bits\nCompression mode                         : Lossy\nStream size                              : 355 MiB (27%)\nAlignment                                : Aligned on interleaves\nInterleave, duration                     : 64 ms (1.60 video frames)\nInterleave, preload duration             : 192 ms\nTitle                                    : Vent d'est\n\n\n\n","torrent":{"xt":"urn:btih:9071d06cb0666fab6eab692264517d5f0ea72959","amp;dn":"Vent+d%27est+1993+%5BPAz%5D","amp;tr":["udp%3A%2F%2Ftracker.openbittorrent.com%3A80","udp%3A%2F%2Fopen.demonii.com%3A1337","udp%3A%2F%2Ftracker.coppersurfer.tk%3A6969","udp%3A%2F%2Fexodus.desync.com%3A6969"],"infoHash":"9071d06cb0666fab6eab692264517d5f0ea72959","infoHashBuffer":{"type":"Buffer","data":[144,113,208,108,176,102,111,171,110,171,105,34,100,81,125,95,14,167,41,89]},"announce":[],"urlList":[]}}